<svg xmlns="http://www.w3.org/2000/svg" width="30.108" height="24.398">
  <g data-name="Grupo 135">
    <path data-name="Caminho 276"
      d="M30.108 2.919a9.569 9.569 0 01-.7.945 11.619 11.619 0 01-2.252 2.132l-.105.2a16.677 16.677 0 01-.136 2.732 18.287 18.287 0 01-1.621 5.486 18.212 18.212 0 01-3.368 4.852 16.606 16.606 0 01-8.506 4.725 19.03 19.03 0 01-3.438.4c-.186.006-.371.008-.555.008a17.255 17.255 0 01-9.275-2.66l-.149-.092a13.408 13.408 0 001.448.079 12.523 12.523 0 004.725-.92 12.237 12.237 0 002.94-1.717 6.111 6.111 0 01-5.7-4.276 5.936 5.936 0 001.144.111 6.467 6.467 0 001.495-.18l.093-.046a6.046 6.046 0 01-3.978-2.824 5.994 5.994 0 01-.885-3.273 6.064 6.064 0 002.737.738 6.125 6.125 0 01-2.507-3.734 6.068 6.068 0 01.7-4.461 17.455 17.455 0 0012.651 6.443c-.033-.254-.066-.461-.1-.68a5.978 5.978 0 01.941-4.022A5.94 5.94 0 0119.901.096a6.8 6.8 0 011.121-.1 5.942 5.942 0 014.259 1.813.325.325 0 00.226.1.386.386 0 00.1-.013 12.188 12.188 0 003.6-1.371l.081-.047a6.071 6.071 0 01-2.619 3.354 11.906 11.906 0 003.439-.913z"
      fill="#b965ae" />
  </g>
</svg>