<svg xmlns="http://www.w3.org/2000/svg" xmlns:xlink="http://www.w3.org/1999/xlink" viewBox="0 0 198.21 235.96"><defs><style>.cls-1{fill:url(#Gradiente_sem_nome_33);}.cls-2{fill:url(#Gradiente_sem_nome_27);}.cls-3{fill:url(#Gradiente_sem_nome_29);}.cls-4{fill:url(#Gradiente_sem_nome_3);}.cls-5{fill:url(#Gradiente_sem_nome_34);}</style><linearGradient id="Gradiente_sem_nome_33" x1="-17.15" y1="59.29" x2="146.96" y2="186.07" gradientUnits="userSpaceOnUse"><stop offset="0" stop-color="#db6659"/><stop offset="0.12" stop-color="#cd657d"/><stop offset="0.28" stop-color="#ba65aa"/><stop offset="0.41" stop-color="#af64c6"/><stop offset="0.48" stop-color="#ab64d1"/><stop offset="0.61" stop-color="#a767d3"/><stop offset="0.73" stop-color="#9a6ed8"/><stop offset="0.86" stop-color="#867be1"/><stop offset="0.98" stop-color="#6c8bed"/></linearGradient><linearGradient id="Gradiente_sem_nome_27" x1="-4.61" y1="34.78" x2="193.37" y2="138.25" gradientUnits="userSpaceOnUse"><stop offset="0" stop-color="#db6659"/><stop offset="0.11" stop-color="#ce657a"/><stop offset="0.3" stop-color="#bb65a9"/><stop offset="0.44" stop-color="#af64c6"/><stop offset="0.52" stop-color="#ab64d1"/><stop offset="0.63" stop-color="#a767d3"/><stop offset="0.76" stop-color="#9a6ed8"/><stop offset="0.88" stop-color="#867be1"/><stop offset="0.99" stop-color="#6c8bed"/></linearGradient><linearGradient id="Gradiente_sem_nome_29" x1="19.15" y1="34.34" x2="189.68" y2="145.63" gradientUnits="userSpaceOnUse"><stop offset="0" stop-color="#db6659"/><stop offset="0.24" stop-color="#c36596"/><stop offset="0.44" stop-color="#b264c1"/><stop offset="0.54" stop-color="#ab64d1"/><stop offset="0.65" stop-color="#a767d3"/><stop offset="0.77" stop-color="#9a6ed8"/><stop offset="0.88" stop-color="#867be1"/><stop offset="0.99" stop-color="#6c8bed"/></linearGradient><linearGradient id="Gradiente_sem_nome_3" x1="48.03" y1="184.44" x2="148.75" y2="260.41" gradientUnits="userSpaceOnUse"><stop offset="0" stop-color="#db6659"/><stop offset="0.25" stop-color="#c36596"/><stop offset="0.46" stop-color="#b264c1"/><stop offset="0.57" stop-color="#ab64d1"/><stop offset="0.67" stop-color="#a767d3"/><stop offset="0.78" stop-color="#9a6ed8"/><stop offset="0.89" stop-color="#867be1"/><stop offset="0.99" stop-color="#6c8bed"/></linearGradient><linearGradient id="Gradiente_sem_nome_34" x1="3.79" y1="31.38" x2="193.58" y2="135.71" gradientUnits="userSpaceOnUse"><stop offset="0" stop-color="#db6659"/><stop offset="0.13" stop-color="#cc657e"/><stop offset="0.3" stop-color="#ba65ab"/><stop offset="0.44" stop-color="#af64c7"/><stop offset="0.51" stop-color="#ab64d1"/><stop offset="0.63" stop-color="#a767d3"/><stop offset="0.76" stop-color="#9a6ed8"/><stop offset="0.88" stop-color="#867be1"/><stop offset="1" stop-color="#6c8bed"/></linearGradient></defs><g id="Camada_2" data-name="Camada 2"><g id="Camada_1-2" data-name="Camada 1"><path class="cls-1" d="M106.77,209.16C84.19,185.29,27.17,121.45,28,86c.44-19.68,8.83-37.56,22.38-51.3C28.69,49,14.43,71.73,13.86,97.54,13.07,133,70.09,196.87,92.67,220.73c4.63,4.9,13.59,5,18.4.21,2.42-2.41,5.23-5.26,8.32-8.44C115,213.56,109.89,212.45,106.77,209.16Z"/><path class="cls-2" d="M8.35,94.53C9,62.78,29.48,35.61,58.67,22.73a94.34,94.34,0,0,1,43.63-9.82c20.49.32,40.58,7.05,55.33,18.05C141.83,12.47,116.07.44,88.47,0,39.71-.75,1,35,0,79.78c-.4,18.27,12.28,44,29.29,68C17,128.37,8,109.09,8.35,94.53Z"/><path class="cls-3" d="M116.78,1.57c38.11,8.87,65.95,41.07,65.13,79-.25,11.87-6.75,26.71-16.12,42.08-15.48,29.08-42.66,61-59.1,79.33l2.3,2.55a11.93,11.93,0,0,0,8.09,3.68,11.23,11.23,0,0,0,7.26-3.53c21.59-23.6,73.12-84.32,73.85-120.35C199.11,39.43,162.79,2.42,116.78,1.57Z"/><path class="cls-4" d="M115,223.14c-1,.85-1.94,1.67-2.84,2.43-5.64,4.79-16.15,4.69-21.58-.21-.73-.66-1.5-1.35-2.28-2.07-36.7.68-64,3.22-64,6.25,0,3.55,37.4,6.42,83.54,6.42s83.55-2.87,83.55-6.42C191.37,226.18,157.76,223.42,115,223.14Z"/><path class="cls-5" d="M99.8,141.58a57.42,57.42,0,1,1,57.37-56.64C157,116,130.89,141.69,99.8,141.58Zm-44.87-58,33.22,33.25c16.79-16.78,34-33.95,50.63-50.63l-15.5-15.54L87.51,86.52l-17.42-18Z"/></g></g></svg>