<svg xmlns="http://www.w3.org/2000/svg" xmlns:xlink="http://www.w3.org/1999/xlink" viewBox="0 0 482.14 249"><defs><style>.cls-1{fill:url(#Gradiente_sem_nome_25);}.cls-2{fill:url(#Gradiente_sem_nome_19);}.cls-3{fill:url(#Gradiente_sem_nome_28);}.cls-4{fill:url(#Gradiente_sem_nome_27);}.cls-5{fill:url(#Gradiente_sem_nome_29);}.cls-6{fill:url(#Gradiente_sem_nome_3);}.cls-7{fill:url(#Gradiente_sem_nome_26);}.cls-8{fill:url(#Gradiente_sem_nome_22);}.cls-9{fill:url(#Gradiente_sem_nome_9);}</style><linearGradient id="Gradiente_sem_nome_25" x1="1.42" y1="169.3" x2="477.88" y2="169.3" gradientUnits="userSpaceOnUse"><stop offset="0" stop-color="#db6659"/><stop offset="0.35" stop-color="#b965ae"/><stop offset="0.52" stop-color="#ab64d1"/><stop offset="0.62" stop-color="#a767d3"/><stop offset="0.72" stop-color="#9a6ed8"/><stop offset="0.83" stop-color="#867be1"/><stop offset="0.92" stop-color="#6c8bed"/></linearGradient><linearGradient id="Gradiente_sem_nome_19" y1="46.47" x2="482.14" y2="46.47" gradientUnits="userSpaceOnUse"><stop offset="0.03" stop-color="#db6659"/><stop offset="0.24" stop-color="#c36596"/><stop offset="0.42" stop-color="#b264c1"/><stop offset="0.51" stop-color="#ab64d1"/><stop offset="0.6" stop-color="#a767d3"/><stop offset="0.7" stop-color="#9a6ed8"/><stop offset="0.81" stop-color="#867be1"/><stop offset="0.9" stop-color="#6c8bed"/></linearGradient><linearGradient id="Gradiente_sem_nome_28" x1="-5.77" y1="181.37" x2="492.94" y2="181.37" gradientUnits="userSpaceOnUse"><stop offset="0" stop-color="#db6659"/><stop offset="0.14" stop-color="#cd657d"/><stop offset="0.33" stop-color="#ba65aa"/><stop offset="0.48" stop-color="#af64c6"/><stop offset="0.57" stop-color="#ab64d1"/></linearGradient><linearGradient id="Gradiente_sem_nome_27" x1="-1.07" y1="145.97" x2="484.33" y2="145.97" gradientUnits="userSpaceOnUse"><stop offset="0" stop-color="#db6659"/><stop offset="0.11" stop-color="#ce657a"/><stop offset="0.3" stop-color="#bb65a9"/><stop offset="0.44" stop-color="#af64c6"/><stop offset="0.52" stop-color="#ab64d1"/><stop offset="0.63" stop-color="#a767d3"/><stop offset="0.76" stop-color="#9a6ed8"/><stop offset="0.88" stop-color="#867be1"/><stop offset="0.99" stop-color="#6c8bed"/></linearGradient><linearGradient id="Gradiente_sem_nome_29" x1="-4.43" y1="165.43" x2="467.11" y2="166.04" gradientUnits="userSpaceOnUse"><stop offset="0" stop-color="#db6659"/><stop offset="0.24" stop-color="#c36596"/><stop offset="0.44" stop-color="#b264c1"/><stop offset="0.54" stop-color="#ab64d1"/><stop offset="0.65" stop-color="#a767d3"/><stop offset="0.77" stop-color="#9a6ed8"/><stop offset="0.88" stop-color="#867be1"/><stop offset="0.99" stop-color="#6c8bed"/></linearGradient><linearGradient id="Gradiente_sem_nome_3" x1="-3.38" y1="244.93" x2="494.49" y2="244.93" gradientUnits="userSpaceOnUse"><stop offset="0" stop-color="#db6659"/><stop offset="0.25" stop-color="#c36596"/><stop offset="0.46" stop-color="#b264c1"/><stop offset="0.57" stop-color="#ab64d1"/><stop offset="0.67" stop-color="#a767d3"/><stop offset="0.78" stop-color="#9a6ed8"/><stop offset="0.89" stop-color="#867be1"/><stop offset="0.99" stop-color="#6c8bed"/></linearGradient><linearGradient id="Gradiente_sem_nome_26" x1="-0.42" y1="152.5" x2="476.25" y2="152.5" gradientUnits="userSpaceOnUse"><stop offset="0" stop-color="#db6659"/><stop offset="0.13" stop-color="#cc657e"/><stop offset="0.3" stop-color="#ba65ab"/><stop offset="0.44" stop-color="#af64c7"/><stop offset="0.51" stop-color="#ab64d1"/></linearGradient><linearGradient id="Gradiente_sem_nome_22" x1="249.68" y1="166.45" x2="482.14" y2="166.45" gradientUnits="userSpaceOnUse"><stop offset="0" stop-color="#ab64d1"/><stop offset="0.21" stop-color="#a767d3"/><stop offset="0.43" stop-color="#9a6ed8"/><stop offset="0.64" stop-color="#867be1"/><stop offset="0.85" stop-color="#6c8bed"/></linearGradient><linearGradient id="Gradiente_sem_nome_9" x1="250.14" y1="107.08" x2="268.14" y2="107.08" gradientUnits="userSpaceOnUse"><stop offset="1" stop-color="#ab64d1"/><stop offset="1" stop-color="#a767d3"/><stop offset="1" stop-color="#9a6ed8"/><stop offset="1" stop-color="#867be1"/><stop offset="1" stop-color="#6c8bed"/></linearGradient></defs><g id="Camada_2" data-name="Camada 2"><g id="Camada_1-2" data-name="Camada 1"><path class="cls-1" d="M29.66,159.92H71.6c1.2,0,2.4,0,3.6,0,5.76-.33,9.79-4.3,9.76-9.58a9.74,9.74,0,0,0-9.73-9.65c-3.86-.16-7.73,0-11.6,0H23.73v5.08c0,20.27,0,40.53,0,60.8,0,8.11-7.89,12.88-15.22,9.31a9.32,9.32,0,0,1-5.65-8.92c0-22-.1-44,.05-66,.07-10.41,8.49-18.84,19.83-19,23.59-.35,30.75-.44,54.33.1,14.31.33,26.44,10.91,28.46,23.21,2.58,15.74-8.53,30.26-25.34,33a39.85,39.85,0,0,1-6.36.54c-12.93,0-9.41.07-22.34,0-9,0-16-3.73-20-12C30.56,164.89,30.36,162.7,29.66,159.92Z"/><path class="cls-2" d="M482.08,16.59c-1.42-9.72-9.85-16.45-21-16.48Q423.92,0,386.74.12a27.67,27.67,0,0,0-4.25.34c-6.64-1.81-12.75,2.88-12.76,10.21,0,17.24,0,34.49,0,52.58-1.58-1.1-2.52-1.71-3.41-2.39L320.72,25.7Q305.95,14.29,291.18,2.85C287.6.07,283.66-.79,279.51,1.08a8.86,8.86,0,0,0-5.66,8.55q0,32.46,0,64.91h-77V55.6c15.77,0,31.21,0,46.65,0a42,42,0,0,0,7.35-.56c8.92-1.63,15.75-9.73,14.88-17.91h-68.9V18.35h70.57c-.87-2.33-1.32-4.37-2.32-6.08-4.65-7.95-8.72-12-17.77-12.09-24.39-.2-27-.27-51.39,0a25.12,25.12,0,0,0-3.06.24c-4.41-1.16-8.8.5-11.56,4.79C175.59,14,170.09,23,164.51,31.9L142.24,67.48c-1.11-1.64-1.86-2.66-2.53-3.73Q123,37,106.35,10.26a53.56,53.56,0,0,0-4.83-7,10,10,0,0,0-8.75-3C68.45,0,44.12-.1,19.8.18,7.73.32.18,8.65.18,20.7.17,37.57.66,54.46,0,71.3-.49,84.64,9.85,93,21.68,92.76c23.22-.36,46.45-.1,69.68-.11a40.81,40.81,0,0,0,4.28-.15c10.35-1,19.11-8.77,20-18h-95V55.6H25c14.27,0,28.55,0,42.82,0a39.57,39.57,0,0,0,7-.56c8.94-1.65,15.92-10,14.76-17.94H20.67V18.43H88.1Q109,52.08,130,85.63c6.11,9.7,18.21,9.78,24.33.1q11.1-17.57,22.09-35.21c0,6.91-.06,13.83-.33,20.74-.5,13.34,9.79,21.68,21.64,21.5,23.22-.36,46.46-.1,69.69-.11,1.43,0,12.21,0,13.62-.14l.47-.07c6.67,1.59,12.64-2.94,12.66-10.08.05-16.08,0-32.17,0-48.26V29.92a7.25,7.25,0,0,1,1.31.46q28.95,22.35,57.87,44.72c6.67,5.15,13.32,10.34,20.06,15.4a10.35,10.35,0,0,0,11.39,1,8.48,8.48,0,0,0,5.22-8q0-31.77,0-63.54h23.8v4.61c0,19.21-.14,38.42.15,57.63a13.21,13.21,0,0,0,3.43,8.11c3,3.16,7.33,3.1,11.26,1.32s5.45-4.86,5.44-9.08c-.07-19.47,0-38.94,0-58.41V19.78H482.1A25,25,0,0,0,482.08,16.59Z"/><path class="cls-3" d="M182,232c-14.36-15.17-50.61-55.76-50.1-78.31A47.84,47.84,0,0,1,146.14,121c-13.76,9.1-22.82,23.56-23.19,40-.5,22.55,35.75,63.14,50.1,78.31a8.56,8.56,0,0,0,11.7.13c1.54-1.53,3.33-3.34,5.29-5.36A8.49,8.49,0,0,1,182,232Z"/><path class="cls-4" d="M119.45,159.09c.43-20.18,13.43-37.45,32-45.64a59.9,59.9,0,0,1,27.73-6.24c13,.2,25.8,4.48,35.18,11.47-10-11.75-26.42-19.4-44-19.67-31-.48-55.62,22.22-56.23,50.71-.25,11.61,7.8,27.94,18.62,43.22C125,180.61,119.25,168.35,119.45,159.09Z"/><path class="cls-5" d="M188.38,100c24.22,5.64,41.92,26.1,41.4,50.22-.16,7.54-4.29,17-10.25,26.75-9.84,18.49-27.11,38.77-37.57,50.43l1.47,1.62a7.59,7.59,0,0,0,5.14,2.34,7.15,7.15,0,0,0,4.61-2.24c13.73-15,46.49-53.61,46.95-76.51C240.71,124.07,217.63,100.54,188.38,100Z"/><path class="cls-6" d="M187.22,240.85l-1.81,1.55c-3.58,3-10.26,3-13.71-.14L170.25,241c-23.33.43-40.68,2-40.68,4,0,2.25,23.78,4.08,53.11,4.08s53.11-1.83,53.11-4.08S214.43,241,187.22,240.85Z"/><path class="cls-7" d="M177.58,189a36.5,36.5,0,1,1,36.47-36C213.92,172.72,197.35,189.07,177.58,189Zm-28.52-36.83,21.12,21.13,32.19-32.19-9.86-9.87L169.77,154,158.7,142.55C155.31,145.92,152.05,149.18,149.06,152.17Z"/><path class="cls-8" d="M434.05,139.78H482.1a25,25,0,0,0,0-3.19c-1.42-9.72-9.85-16.45-21-16.48q-37.19-.12-74.37,0a27.67,27.67,0,0,0-4.25.34c-6.64-1.81-12.75,2.88-12.76,10.21,0,17.24,0,34.49,0,52.58-1.58-1.1-2.52-1.71-3.41-2.39L320.72,145.7q-14.78-11.41-29.54-22.85c-3.58-2.78-7.52-3.64-11.67-1.77a8.86,8.86,0,0,0-5.66,8.55q0,32.46,0,64.91H270V166c0-11.77,0-23.54,0-35.31,0-6.53-4-10.66-10.18-10.6s-10.09,4.36-10.1,10.8q0,35.31,0,70.62c0,6.91,3.84,10.91,10.3,10.87h.15v.29h7.24c1.43,0,12.21,0,13.62-.14l.47-.07c6.67,1.59,12.64-2.94,12.66-10.08.05-16.08,0-32.17,0-48.26v-4.18a7.25,7.25,0,0,1,1.31.46q28.95,22.35,57.87,44.72c6.67,5.15,13.32,10.34,20.06,15.4a10.35,10.35,0,0,0,11.39,1,8.48,8.48,0,0,0,5.22-8q0-31.77,0-63.54h23.8v4.61c0,19.21-.14,38.42.15,57.63a13.21,13.21,0,0,0,3.43,8.11c3,3.16,7.33,3.1,11.26,1.32s5.45-4.86,5.44-9.08c-.07-19.47,0-38.94,0-58.41Z"/><path class="cls-9" d="M268.13,107.08c0-.08,0-.16,0-.25s0,0,0,0c-.24-5.47-3.74-8.9-9-8.85-5,0-8.54,3.45-8.92,8.64a.12.12,0,0,0,0,.08c0,.15,0,.29,0,.43s0,.29,0,.43a.18.18,0,0,0,0,.09c.38,5.19,3.88,8.59,8.92,8.64,5.28.05,8.78-3.39,9-8.85,0,0,0,0,0-.06S268.13,107.17,268.13,107.08Z"/></g></g></svg>